<svg width="612" height="612" xmlns="http://www.w3.org/2000/svg">

 <g>
  <title>background</title>
  <rect fill="none" id="canvas_background" height="602" width="802" y="-1" x="-1"/>
 </g>
 <g>
  <title>Layer 1</title>
  <g id="svg_1">
   <g id="_x39__31_">
    <g id="svg_2">
     <path fill="#f6541c" id="svg_3" d="m114.75,535.5c0,42.247 34.253,76.5 76.5,76.5s76.5,-34.253 76.5,-76.5s-34.253,-76.5 -76.5,-76.5s-76.5,34.253 -76.5,76.5zm76.5,-38.25c21.133,0 38.25,17.117 38.25,38.25s-17.117,38.25 -38.25,38.25s-38.25,-17.136 -38.25,-38.25s17.117,-38.25 38.25,-38.25zm153,38.25c0,42.247 34.253,76.5 76.5,76.5s76.5,-34.253 76.5,-76.5s-34.253,-76.5 -76.5,-76.5s-76.5,34.253 -76.5,76.5zm76.5,-38.25c21.133,0 38.25,17.117 38.25,38.25s-17.117,38.25 -38.25,38.25s-38.25,-17.136 -38.25,-38.25s17.117,-38.25 38.25,-38.25zm-267.75,-76.5c-21.133,0 -38.25,-17.117 -38.25,-38.25l439.875,-38.25c0,0 57.375,-231.891 57.375,-248.625c0,-10.557 -8.568,-19.125 -19.125,-19.125l-478.125,0l0,-38.25l19.125,0c10.557,0 19.125,-8.568 19.125,-19.125s-8.568,-19.125 -19.125,-19.125l-114.75,0c-10.557,0 -19.125,8.568 -19.125,19.125s8.568,19.125 19.125,19.125l57.375,0l0,344.25c0,42.247 34.253,76.5 76.5,76.5l38.25,0l229.5,0l172.125,0c0.593,0 0,-18.972 0,-38.25l-439.875,0zm-38.25,-306l459,0l-48.902,195.61l-410.098,33.89l0,-229.5z"/>
    </g>
   </g>
  </g>
  <g id="svg_4"/>
  <g id="svg_5"/>
  <g id="svg_6"/>
  <g id="svg_7"/>
  <g id="svg_8"/>
  <g id="svg_9"/>
  <g id="svg_10"/>
  <g id="svg_11"/>
  <g id="svg_12"/>
  <g id="svg_13"/>
  <g id="svg_14"/>
  <g id="svg_15"/>
  <g id="svg_16"/>
  <g id="svg_17"/>
  <g id="svg_18"/>
 </g>
</svg>